<svg xmlns="http://www.w3.org/2000/svg" viewBox="0 0 128 128" width="128" height="128">
  <!-- Window frame -->
  <rect x="12" y="20" width="104" height="92" rx="10" ry="10" fill="none" stroke="#000" stroke-width="6"/>
  <!-- Title bar -->
  <line x1="12" y1="42" x2="116" y2="42" stroke="#000" stroke-width="4"/>
  <!-- Title bar dots -->
  <circle cx="28" cy="31" r="4" fill="#000"/>
  <circle cx="42" cy="31" r="4" fill="#000"/>
  <circle cx="56" cy="31" r="4" fill="#000"/>
  <!-- Central brain/chip node -->
  <rect x="52" y="61" width="24" height="24" rx="4" fill="#000"/>
  <!-- Circuit traces radiating out -->
  <line x1="52" y1="69" x2="32" y2="69" stroke="#000" stroke-width="3"/>
  <line x1="52" y1="77" x2="32" y2="77" stroke="#000" stroke-width="3"/>
  <line x1="76" y1="69" x2="96" y2="69" stroke="#000" stroke-width="3"/>
  <line x1="76" y1="77" x2="96" y2="77" stroke="#000" stroke-width="3"/>
  <line x1="60" y1="61" x2="60" y2="49" stroke="#000" stroke-width="3"/>
  <line x1="68" y1="61" x2="68" y2="49" stroke="#000" stroke-width="3"/>
  <line x1="60" y1="85" x2="60" y2="97" stroke="#000" stroke-width="3"/>
  <line x1="68" y1="85" x2="68" y2="97" stroke="#000" stroke-width="3"/>
  <!-- Endpoint dots -->
  <circle cx="32" cy="69" r="3" fill="#000"/>
  <circle cx="32" cy="77" r="3" fill="#000"/>
  <circle cx="96" cy="69" r="3" fill="#000"/>
  <circle cx="96" cy="77" r="3" fill="#000"/>
  <circle cx="60" cy="49" r="3" fill="#000"/>
  <circle cx="68" cy="49" r="3" fill="#000"/>
  <circle cx="60" cy="97" r="3" fill="#000"/>
  <circle cx="68" cy="97" r="3" fill="#000"/>
</svg>
